<?xml version="1.0" standalone="no"?>
<!DOCTYPE svg PUBLIC "-//W3C//DTD SVG 20010904//EN"
 "http://www.w3.org/TR/2001/REC-SVG-20010904/DTD/svg10.dtd">
<svg version="1.0" xmlns="http://www.w3.org/2000/svg"
 width="801.000000pt" height="801.000000pt" viewBox="0 0 801.000000 801.000000"
 preserveAspectRatio="xMidYMid meet">
<metadata>
Created by potrace 1.11, written by Peter Selinger 2001-2013
</metadata>
<g transform="translate(0.000000,801.000000) scale(0.100000,-0.100000)"
fill="#000000" stroke="none">
<path d="M5567 7604 c-1 -1 -40 -4 -87 -8 -47 -4 -98 -9 -115 -12 -121 -20
-158 -29 -228 -51 -302 -95 -551 -292 -671 -533 -55 -108 -115 -305 -131 -424
-6 -52 -17 -129 -23 -166 -3 -19 -7 -1379 -9 -3022 l-3 -2987 472 2 473 2 5
1600 5 1600 510 1 510 1 0 439 0 439 -513 3 -514 2 5 838 c2 460 6 848 10 862
3 14 8 50 11 80 9 81 35 178 63 238 81 174 287 230 551 151 37 -11 76 -24 87
-29 11 -5 49 -21 85 -35 36 -15 93 -42 127 -61 34 -19 68 -34 76 -34 12 0 14
67 14 480 0 264 -1 480 -2 480 0 0 -47 16 -103 35 -207 70 -369 104 -520 108
-46 1 -84 1 -85 1z"/>
<path d="M1735 2448 l0 -2043 474 0 474 0 2 1145 c1 630 5 1154 7 1165 3 11 9
47 13 80 43 369 196 636 425 743 128 60 164 65 508 67 172 2 316 6 320 10 4 3
7 202 7 441 l0 435 -231 -2 c-254 -1 -349 -13 -480 -58 -150 -51 -276 -135
-456 -302 -55 -52 -104 -95 -108 -97 -4 -1 -8 95 -8 215 0 120 -1 224 -1 231
-1 9 -103 12 -474 12 l-472 0 0 -2042z"/>
</g>
</svg>
