<?xml version="1.0" encoding="utf-8"?>
<!-- Generator: Adobe Illustrator 20.1.0, SVG Export Plug-In . SVG Version: 6.00 Build 0)  -->
<svg version="1.1" id="Layer_1" xmlns="http://www.w3.org/2000/svg" xmlns:xlink="http://www.w3.org/1999/xlink" x="0px" y="0px"
	 viewBox="0 0 456.4 449.6" style="enable-background:new 0 0 456.4 449.6;" xml:space="preserve">
<style type="text/css">
	.st0{fill:#FFDE44;}
	.st1{fill:#FFCE00;}
	.st2{fill:#FFEE88;}
	.st3{fill:none;}
	.st4{fill:#FFF39F;}
	.st5{fill:#FFE35B;}
	.st6{fill:#FFE872;}
	.st7{fill:#FFD317;}
	.st8{fill:#FFD92D;}
</style>
<title>Artboard 3</title>
<polygon class="st0" points="190.5,146.5 233.3,146.5 233.2,147 283.5,323.1 240.9,323.1 "/>
<polygon class="st1" points="165.5,146.5 122.9,146.5 173.4,323.1 216,323.1 "/>
<polygon class="st2" points="274.7,203.3 296,277.7 333.5,146.5 290.6,146.5 290.8,147 "/>
<polygon class="st3" points="228.2,224.8 228.2,224.8 228.2,224.8 228.2,224.8 228.2,224.8 "/>
<polygon class="st3" points="228.2,224.8 228.2,224.8 228.2,224.8 228.2,224.8 228.2,224.8 "/>
<path class="st4" d="M51.9,249.7l-0.4-4.9H14.1l0.4,5.7c1.4,19.8,5.8,39.2,13.2,57.6l34.5-14.3C56.6,279.7,53.2,264.8,51.9,249.7z"
	/>
<path class="st5" d="M228.2,402c-23.2,0-46.3-4.3-67.9-12.7L146,424c26.2,10.2,54.1,15.5,82.2,15.4l0,0L228.2,402L228.2,402z"/>
<path class="st0" d="M228.2,402v37.4c28.3,0.1,56.3-5.2,82.7-15.6l-14.4-34.6C274.7,397.7,251.6,402,228.2,402z"/>
<path class="st2" d="M62.2,293.8l-34.5,14.3c10.6,26.4,26.7,50.3,47.2,70.1l26.5-26.5C84.2,335.5,70.9,315.7,62.2,293.8z"/>
<path class="st6" d="M107.7,357.7c-2.2-1.9-4.4-3.9-6.5-5.9l-26.5,26.5c0.8,0.8,1.6,1.5,2.3,2.2c20,18.8,43.3,33.5,68.9,43.5
	l14.3-34.6C141.1,381.9,123.3,371.2,107.7,357.7z"/>
<path class="st7" d="M355.1,351.7l26.5,26.5c20.6-19.9,36.7-43.9,47.3-70.5l-34.6-14.3C385.6,315.4,372.2,335.3,355.1,351.7z"/>
<path class="st8" d="M348.6,357.7c-15.4,13.4-33.1,24.1-52.1,31.5l14.4,34.6c25.3-10,48.5-24.7,68.3-43.3c0.8-0.8,1.6-1.5,2.4-2.3
	l-26.5-26.5C353,353.7,350.9,355.7,348.6,357.7z"/>
<path class="st1" d="M442,224.8c0-0.6-0.1-1.1-0.1-1.6l-0.4-5h-75.1v37.4h37.5c-1.6,13-4.8,25.7-9.6,37.9l34.6,14.3
	c7.2-18.3,11.6-37.5,13-57.1c0.3-4.7,0.5-9.3,0.5-13.7C442.4,233,442.2,228.9,442,224.8z"/>
<path class="st7" d="M101.3,97.9L74.8,71.4c-20.6,19.9-36.7,43.9-47.3,70.5l34.6,14.3C70.8,134.2,84.2,114.3,101.3,97.9z"/>
<path class="st8" d="M107.8,91.9c15.4-13.4,33.1-24.1,52.1-31.5l-14.4-34.6c-25.3,10-48.5,24.7-68.3,43.3c-0.8,0.8-1.6,1.5-2.4,2.3
	l26.5,26.5C103.4,95.9,105.6,93.9,107.8,91.9z"/>
<path class="st1" d="M52.6,194.1c1.6-13,4.8-25.7,9.6-37.9l-34.6-14.3c-7.2,18.3-11.6,37.5-13,57.1c-0.3,4.7-0.5,9.3-0.5,13.7
	c0,3.9,0.1,8,0.4,12c0,0.6,0.1,1.1,0.1,1.6l0.4,5h75.7v-37.3H52.6z"/>
<path class="st4" d="M404.5,199.9l0.4,4.9h37.4l-0.4-5.7c-1.4-19.8-5.8-39.2-13.2-57.6l-34.5,14.3
	C399.8,169.9,403.3,184.8,404.5,199.9z"/>
<path class="st5" d="M228.3,47.6c23.2,0,46.3,4.3,67.9,12.7l14.3-34.6c-26.2-10.2-54.1-15.5-82.2-15.4l0,0L228.3,47.6L228.3,47.6z"
	/>
<path class="st0" d="M228.2,47.6V10.2c-28.3-0.1-56.3,5.2-82.7,15.6l14.4,34.6C181.7,51.9,204.9,47.6,228.2,47.6z"/>
<path class="st2" d="M394.3,155.8l34.5-14.3c-10.6-26.4-26.7-50.3-47.1-70.1l-26.5,26.5C372.2,114.2,385.5,133.9,394.3,155.8z"/>
<path class="st6" d="M348.7,91.9c2.2,1.9,4.4,3.9,6.5,5.9l26.5-26.5c-0.8-0.8-1.5-1.5-2.3-2.2c-20-18.8-43.3-33.5-68.8-43.5
	l-14.3,34.6C315.4,67.7,333.1,78.4,348.7,91.9z"/>
</svg>
