<?xml version="1.0" encoding="utf-8"?>
<!-- Generator: Adobe Illustrator 20.1.0, SVG Export Plug-In . SVG Version: 6.00 Build 0)  -->
<svg version="1.1" id="Layer_1" xmlns="http://www.w3.org/2000/svg" xmlns:xlink="http://www.w3.org/1999/xlink" x="0px" y="0px"
	 viewBox="0 0 456.4 449.6" style="enable-background:new 0 0 456.4 449.6;" xml:space="preserve">
<style type="text/css">
	.st0{fill:#FFFFFF;}
</style>
<title>Artboard 3</title>
<g>
	<polygon class="st0" points="333.5,146.5 290.6,146.5 290.8,147 274.7,203.3 296,277.7 	"/>
	<polygon class="st0" points="283.5,323.1 233.2,147 233.3,146.5 190.5,146.5 240.9,323.1 	"/>
	<polygon class="st0" points="123,146.5 173.4,323.1 216,323.1 165.5,146.5 	"/>
	<path class="st0" d="M14.6,224.7c0,0.5,0.1,1.1,0.1,1.7l0.4,5h75.1V194H52.8c1.6-13,4.8-25.7,9.6-37.9l-0.1,0c0,0,0,0,0,0l0.1,0
		c8.7-22,22.1-41.9,39.2-58.3c2.1-2,4.2-4,6.5-6c8.3-7.2,17.2-13.6,26.6-19.1c0.5-0.3,1-0.6,1.5-0.9c0.1,0,0.2-0.1,0.2-0.1
		c7.7-4.4,15.8-8.3,24.1-11.5c1.8-0.7,3.7-1.4,5.5-2.1c0.2-0.1,0.5-0.2,0.7-0.2c1.9-0.7,3.8-1.3,5.8-1.9c0.1,0,0.1,0,0.2-0.1
		c1.7-0.5,3.4-1,5.1-1.5c0.6-0.2,1.1-0.3,1.7-0.5c1.4-0.4,2.7-0.7,4.1-1c1.4-0.3,2.8-0.7,4.2-1c0.7-0.1,1.3-0.3,2-0.4
		c12.7-2.6,25.6-4,38.5-4h0c23.2,0,46.3,4.3,67.9,12.7l0,0c19.2,7.5,37,18.2,52.5,31.7c2.2,1.9,4.4,3.9,6.5,5.9l0,0c0,0,0,0,0,0l0,0
		c17,16.3,30.4,36.1,39.1,58l0,0c5.6,14.1,9,28.9,10.3,44l0.4,4.9h37.4l0-0.1h0L442,199c-1.4-19.8-5.8-39.2-13.2-57.6l0,0
		c-10.6-26.4-26.6-50.3-47.1-70l0.1-0.1c-0.8-0.8-1.5-1.5-2.3-2.2c-20-18.8-43.3-33.5-68.8-43.5c-26.2-10.2-54.1-15.5-82.2-15.4v0
		c0,0,0,0,0,0v0c0,0,0,0,0,0s0,0,0,0v0c0,0,0,0,0,0c0,0,0,0,0,0v0c0,0,0,0,0,0c0,0,0,0,0,0v0c-28.3,0-56.3,5.2-82.6,15.6l0,0
		c0,0,0,0,0,0l0,0c-25.3,10-48.5,24.7-68.3,43.3c-0.8,0.8-1.6,1.5-2.4,2.3l0,0c0,0,0,0,0,0l0,0c-20.4,19.7-36.4,43.6-47,69.9l0,0
		c-4.1,10.4-7.3,21.1-9.6,31.9c-1.8,8.5-3,17-3.6,25.7l-0.4,5.7h0.2c-0.1,2.7-0.2,5.3-0.2,7.9C14.3,216.6,14.4,220.7,14.6,224.7z"/>
	<path class="st0" d="M442,224.8c0-0.5-0.1-1.1-0.1-1.7l-0.4-5h-75.1v37.4h37.5c-1.6,13-4.8,25.7-9.6,37.9l0.1,0c0,0,0,0,0,0l-0.1,0
		c-8.7,22-22.1,41.9-39.2,58.3c-2.1,2-4.2,4-6.5,6c-15.4,13.4-33.1,24.1-52.1,31.5l0,0c-16.3,6.4-33.3,10.4-50.6,12
		c-0.5,0-0.9,0.1-1.4,0.1c-0.8,0.1-1.6,0.1-2.3,0.2c-0.8,0.1-1.7,0.1-2.5,0.2c-0.3,0-0.7,0-1,0.1c-3.4,0.2-6.8,0.3-10.2,0.3h0
		c-23.2,0-46.3-4.3-67.9-12.7l0,0c-19.2-7.5-37-18.2-52.5-31.7c-2.2-1.9-4.4-3.9-6.5-5.9l0,0c0,0,0,0,0,0l0,0
		c-17-16.3-30.4-36.1-39.1-58l0,0c-5.6-14.1-9-28.9-10.3-44l-0.4-4.9h-0.2H14.3h-0.2l0.4,5.7c1.4,19.8,5.8,39.2,13.2,57.6
		c10.6,26.4,26.7,50.3,47.1,70.1l0.1-0.1c0,0,0,0,0,0l-0.1,0.1c0.8,0.8,1.5,1.5,2.3,2.2c20,18.8,43.3,33.5,68.8,43.5
		c26.2,10.2,54.1,15.5,82.2,15.4v0c0,0,0,0,0,0v0c0,0,0,0,0,0s0,0,0,0v0c0,0,0,0,0,0c0,0,0,0,0,0v0c0,0,0,0,0,0c0,0,0,0,0,0v0
		c28.3,0,56.3-5.2,82.6-15.6l0,0c0,0,0,0,0,0l0,0c25.3-10,48.5-24.7,68.3-43.3c0.8-0.8,1.6-1.5,2.4-2.3l-0.1-0.1
		c20.4-19.7,36.5-43.6,47-70l0,0c7.3-18.4,11.8-37.8,13.2-57.6l0.4-5.7h-0.2c0.1-2.7,0.2-5.4,0.2-8C442.4,233,442.2,228.9,442,224.8
		z"/>
</g>
</svg>
