<?xml version="1.0" encoding="utf-8"?>
<!-- Generator: Adobe Illustrator 20.1.0, SVG Export Plug-In . SVG Version: 6.00 Build 0)  -->
<svg version="1.1" id="Layer_1" xmlns="http://www.w3.org/2000/svg" xmlns:xlink="http://www.w3.org/1999/xlink" x="0px" y="0px"
	 viewBox="0 0 100 86.6" style="enable-background:new 0 0 100 86.6;" xml:space="preserve">
<style type="text/css">
	.st0{fill:$white;}
</style>
<path class="up" class="st0" d="M0,87.6h100L50,1L0,87.6z M57,45.6v5c0,0-2.4,0-3.3,0c-1.2,0-1.7,0-1.7,1.2c0,1,0,2.8,0,2.8h4.9l-0.4,5
	H52v16h-6v-16h-3v-5h3c0,0,0-0.6,0-3.9c0-3.8,2.2-5.1,6.7-5.1C53.5,45.6,57,45.6,57,45.6z"/>
<path class="down" class="st0" d="M100,0.6H0l50,86.6L100,0.6z M43,29.6v-6h3c0,0,0-0.1,0-3.4c0-3.8,2.2-5.6,6.7-5.6
	c0.7,0,4.3,0,4.3,0v5c0,0-2.4,0-3.3,0c-1.2,0-1.7,0.6-1.7,1.8c0,1,0,2.2,0,2.2h4.9l-0.4,6H52v15h-6v-15H43z"/>
</svg>
