<?xml version="1.0" encoding="utf-8"?>
<!-- Generator: Adobe Illustrator 20.1.0, SVG Export Plug-In . SVG Version: 6.00 Build 0)  -->
<svg version="1.1" id="Layer_1" xmlns="http://www.w3.org/2000/svg" xmlns:xlink="http://www.w3.org/1999/xlink" x="0px" y="0px"
	 viewBox="0 0 100 86.6" style="enable-background:new 0 0 100 86.6;" xml:space="preserve">
<style type="text/css">
	.st0{fill:$white;}
</style>
<path class="up" class="st0" d="M0,87.6h100L50,1L0,87.6z M57.1,52c4.4,0,7.9,3.5,7.9,7.9c0,4.4-3.5,7.9-7.9,7.9
	c-3.1,0-5.8-1.8-7.1-4.3c-1.3,2.6-4,4.3-7.1,4.3c-4.4,0-7.9-3.5-7.9-7.9c0-4.4,3.5-7.9,7.9-7.9c3.1,0,5.8,1.8,7.1,4.3
	C51.3,53.7,54,52,57.1,52z M51.3,59.9c0-3.2,2.6-5.8,5.8-5.8c3.2,0,5.8,2.6,5.8,5.8c0,3.2-2.6,5.8-5.8,5.8
	C53.9,65.7,51.3,63.1,51.3,59.9z"/>
<path class="down" class="st0" d="M50,87.2l50-86.6H0L50,87.2z M42.9,21.5c3.1,0,5.8,1.8,7.1,4.3c1.3-2.6,4-4.3,7.1-4.3
	c4.4,0,7.9,3.5,7.9,7.9c0,4.4-3.5,7.9-7.9,7.9c-3.1,0-5.8-1.8-7.1-4.3c-1.3,2.6-4,4.3-7.1,4.3c-4.4,0-7.9-3.5-7.9-7.9
	C35,25.1,38.5,21.5,42.9,21.5z M51.3,29.5c0-3.2,2.6-5.8,5.8-5.8c3.2,0,5.8,2.6,5.8,5.8c0,3.2-2.6,5.8-5.8,5.8
	C53.9,35.3,51.3,32.7,51.3,29.5z"/>
</svg>
