<?xml version="1.0" encoding="utf-8"?>
<!-- Generator: Adobe Illustrator 20.1.0, SVG Export Plug-In . SVG Version: 6.00 Build 0)  -->
<svg version="1.1" id="Layer_1" xmlns="http://www.w3.org/2000/svg" xmlns:xlink="http://www.w3.org/1999/xlink" x="0px" y="0px"
	 viewBox="0 0 100 86.6" style="enable-background:new 0 0 100 86.6;" xml:space="preserve">
<style type="text/css">
	.st0{fill:$white;}
</style>
<path class="up" class="st0" d="M44.6,62.8c3.8,0,6.1,2.4,6.1,4.9c0,2.6-2.1,4.7-6.6,4.7c-3.5,0-6-2.2-6-4.8
	C38.2,65,41.2,62.8,44.6,62.8z M43.7,46c-2.3-0.1-3.9,2.3-3.5,5.3c0.4,3.1,2.6,5.2,4.9,5.3c2.3,0.1,3.7-1.9,3.3-4.9
	C48,48.6,46,46.1,43.7,46z M50,0.4L100,87H0L50,0.4z M55,51h4v4h2v-4h4v-2h-4v-4h-2v4h-4V51z M49.4,47h2.3l1.9-2c0,0-7.3,0-8.6,0
	c-5.4,0-8,3-8,6.6c0,3.6,2.5,6.3,7.3,6.3c-0.8,1.5-0.5,2.9,0.8,3.9c-8.3,0-10.1,3.6-10.1,6.4c0,3.6,4.2,5.8,9.2,5.8
	c6.8,0,9.6-3.6,9.6-6.6c0-2.4-0.9-4-3.7-6.1c-2.8-2-3.5-3.2-0.8-5.2c1.5-1.2,2.5-2.6,2.5-4.5C51.8,49.6,51,48,49.4,47z"/>
<path class="down" class="st0" d="M45.1,26.1c-2.3-0.1-4.5-2.2-4.9-5.3c-0.4-3.1,1.2-5.4,3.5-5.3c2.3,0.1,4.3,2.6,4.7,5.6
	C48.8,24.2,47.4,26.2,45.1,26.1z M44.2,42c4.4,0,6.6-2.1,6.6-4.7c0-2.5-2.3-4.9-6.1-4.9c-3.5,0-6.4,2.2-6.4,4.8
	C38.2,39.8,40.7,42,44.2,42z M0,0h100L50,86.6L0,0z M55,20h4v4h2v-4h4v-2h-4v-4h-2v4h-4V20z M45.1,31.3C36.8,31.3,35,35,35,37.8
	c0,3.6,4.2,5.8,9.2,5.8c6.8,0,9.6-3.6,9.6-6.6c0-2.4-0.9-4-3.7-6.1c-2.8-2-3.5-3.2-0.8-5.2c1.5-1.2,2.5-2.8,2.5-4.7
	c0-2.1-0.8-4-2.4-5h2.3l1.9-2c0,0-7.3,0-8.6,0c-5.4,0-8,3.3-8,6.9c0,3.6,2.5,6.5,7.3,6.5C43.5,28.9,43.8,30.3,45.1,31.3z"/>
</svg>
