<?xml version="1.0" encoding="utf-8"?>
<!-- Generator: Adobe Illustrator 20.1.0, SVG Export Plug-In . SVG Version: 6.00 Build 0)  -->
<svg version="1.1" id="Layer_1" xmlns="http://www.w3.org/2000/svg" xmlns:xlink="http://www.w3.org/1999/xlink" x="0px" y="0px"
	 viewBox="0 0 100 86.6" style="enable-background:new 0 0 100 86.6;" xml:space="preserve">
<style type="text/css">
	.st0{fill:$white;}
</style>
<path class="up" class="st0" d="M0,87h100L50,0.4L0,87z M58,52v5h-7v7.3c0,1.7,0.1,2.9,0.3,3.3c0.2,0.5,0.6,0.9,1.1,1.2
	c0.7,0.4,1.3,0.6,2.2,0.6c1.5,0,3.4-0.5,4.4-1.5v4.7c-1,0.6-2.3,1-3.4,1.3c-1,0.2-2.1,0.4-3.3,0.4c-1.4,0-2.6-0.2-3.6-0.5
	c-1.1-0.3-1.9-0.8-2.7-1.5c-0.7-0.6-1.3-1.3-1.6-2c-0.3-0.7-0.5-1.8-0.5-3.1V57h-3v-4.7c1-0.4,2.1-0.9,2.9-1.6
	c0.8-0.7,1.5-1.2,2-2.2c0.5-1,0.8-2.5,1-3.5H51v7H58z"/>
<path class="down" class="st0" d="M50,86.6L100,0H0L50,86.6z M43.9,20.3c0.8-0.7,1.5-1.5,2-2.5c0.5-1,0.8-2.8,1-3.8H51v7h7v5h-7v7.9
	c0,1.7,0.1,2.9,0.3,3.3c0.2,0.5,0.6,0.9,1.1,1.2c0.7,0.4,1.3,0.6,2.2,0.6c1.5,0,3.4-0.5,4.4-1.5v4.7c-1,0.6-2.3,1-3.4,1.3
	c-1,0.2-2.1,0.4-3.3,0.4c-1.4,0-2.6-0.2-3.6-0.5c-1.1-0.3-1.9-0.8-2.7-1.5c-0.7-0.6-1.3-1.3-1.6-2c-0.3-0.7-0.5-1.8-0.5-3.1V26h-3
	v-4.1C42,21.5,43.1,21,43.9,20.3z"/>
</svg>
