<?xml version="1.0" encoding="utf-8"?>
<!-- Generator: Adobe Illustrator 20.1.0, SVG Export Plug-In . SVG Version: 6.00 Build 0)  -->
<svg version="1.1" id="Layer_1" xmlns="http://www.w3.org/2000/svg" xmlns:xlink="http://www.w3.org/1999/xlink" x="0px" y="0px"
	 viewBox="0 0 100 86.6" style="enable-background:new 0 0 100 86.6;" xml:space="preserve">
<style type="text/css">
	.st0{fill:$white;}
</style>
<path class="up" class="st0" d="M46.5,63.8v5.7c0,0.3-0.1,0.5,0.3,0.5c0.3,0,0.7-0.4,0.7-0.6v-5.6h2v8h-2v-1.3c0,0.3-0.7,0.6-1,0.8
	c-0.8,0.5-2,0.5-2-1.2v-6.2H46.5z M39.5,61.8h2v10h2v-10h1v-1h-5V61.8z M48.5,49.5v4c0,0.4,0.1,0.8,0.5,0.8c0.4,0,0.5-0.3,0.5-0.8
	v-4c0-0.5,0-0.8-0.5-0.8C48.5,48.7,48.5,49,48.5,49.5z M50.5,0.2l50,86.6H0.5L50.5,0.2z M40.8,44.8l1.7,6.2v4.8h2V51l2.3-6.2H45
	l-1.1,4.6l-1.2-4.6H40.8z M59.4,57.8H40.6c-2,0-3.1,1.5-3.1,3.5v9.2c0,2,1.1,4.3,3.1,4.3h18.7c2,0,3.4-2,3.4-4l-0.2-0.3v-9.2
	C62.5,59.3,61.4,57.8,59.4,57.8z M52.5,54.3c0,0.8,0.3,1.5,1.1,1.5c0.5,0,0.9-0.2,1.9-1.1v1.1h2v-8h-2v5.8c0,0.2-0.4,0.6-0.8,0.6
	c-0.3,0-0.2-0.2-0.2-0.6v-5.9h-2V54.3z M49,47.1c-1.4,0-2.5,0.9-2.5,2.3v4.2c0,1.5,1,2.3,2.5,2.3c1.3,0,2.5-0.9,2.5-2.3v-4.2
	C51.5,48,50.3,47.1,49,47.1z M52.5,71.8h-2v-11h2v3.1c0-0.4,0.9-0.8,1.4-0.8c1.1,0,1.6,0.9,1.6,2v4.5c0,1-0.5,1.8-1.5,1.8
	c-0.6,0-1.5-0.2-1.5-0.7V71.8z M52.5,69.8c0,0.1,0.1,0.2,0.2,0.3c0.2,0.1,0.5,0.1,0.6-0.1c0.1-0.1,0.2-0.3,0.2-0.6v-4.2
	c0-0.3,0-0.5-0.1-0.6c-0.2-0.2-0.5-0.3-0.7-0.1c-0.1,0.1-0.2,0.1-0.2,0.2V69.8z M56.5,69.1v-3.7c0-1.4,0.7-2.2,2.1-2.2
	c1.5,0,2,0.6,2,2.6h-0.1v2h-3V69c0,0.6,0.4,1.1,1,1.1c0.6,0,1-0.4,1-1.1v-0.2h1v0.3c0,1.6-0.4,2.5-2,2.5
	C57,71.6,56.5,70.5,56.5,69.1z M57.7,66.2H59v-0.8c0-0.5-0.1-1-0.7-1c-0.6,0-0.7,0.4-0.7,1V66.2z"/>
<path class="down" class="st0" d="M41.5,31.8h-2v-2h5v2h-1v9h-2V31.8z M49,23.9c0.4,0,0.5-0.3,0.5-0.8v-4c0-0.5,0-0.8-0.5-0.8
	c-0.4,0-0.5,0.3-0.5,0.8v4C48.5,23.5,48.6,23.9,49,23.9z M44.5,32.8v6.8c0,1.7,1.2,1.7,2,1.2c0.3-0.2,1-0.4,1-0.8v0.8h2v-8h-2V39
	c0,0.2-0.4,0.6-0.7,0.6c-0.3,0-0.3-0.2-0.3-0.5v-6.2H44.5z M0.5-0.2h100l-50,86.6L0.5-0.2z M52.5,23.8c0,0.8,0.3,1.5,1.1,1.5
	c0.5,0,0.9-0.2,1.9-1.1v0.5h2v-8h-2v6.4c0,0.2-0.4,0.6-0.8,0.6c-0.3,0-0.2-0.2-0.2-0.6v-6.5h-2V23.8z M46.5,18.9v4.2
	c0,1.5,1,2.3,2.5,2.3c1.3,0,2.5-0.9,2.5-2.3v-4.2c0-1.3-1.2-2.3-2.5-2.3C47.6,16.6,46.5,17.6,46.5,18.9z M40.8,13.8l1.7,6.8v4.2h2
	v-4.2l2.3-6.8H45l-1.1,4.6l-1.2-4.6H40.8z M37.5,30.8V40c0,2,1.1,3.8,3.1,3.8h18.7c2,0,3.4-1.7,3.4-3.7L62.5,40v-9.2
	c0-2-1.1-4-3.1-4H40.6C38.6,26.8,37.5,28.8,37.5,30.8z M52.5,40.8h-2v-11h2v3.7c0-0.4,0.9-0.8,1.4-0.8c1.1,0,1.6,0.9,1.6,2v4.5
	c0,1-0.5,1.8-1.5,1.8c-0.6,0-1.5-0.2-1.5-0.7V40.8z M52.5,39.4c0,0.1,0.1,0.2,0.2,0.3c0.2,0.1,0.5,0.1,0.6-0.1
	c0.1-0.1,0.2-0.3,0.2-0.6v-4.2c0-0.3,0-0.5-0.1-0.6c-0.2-0.2-0.5-0.3-0.7-0.1c-0.1,0.1-0.2,0.1-0.2,0.2V39.4z M56.5,38.7V35
	c0-1.4,0.7-2.5,2.1-2.5c1.5,0,2,1.3,2,2.3h-0.1v2h-3v1.8c0,0.6,0.4,1.1,1,1.1c0.6,0,1-0.4,1-1.1v-0.8h1v0.8c0,1.6-0.4,2.5-2,2.5
	C57,41.2,56.5,40.1,56.5,38.7z M57.7,35.8H59V35c0-0.5-0.1-1-0.7-1c-0.6,0-0.7,0.4-0.7,1V35.8z"/>
</svg>
