<svg xmlns="http://www.w3.org/2000/svg" viewBox="0 0 30 30">
  <title>codepen</title>
  <path d="M24.93237,11.82056c-.00446-.024-.00861-.04816-.01489-.07166-.00366-.0141-.00891-.02771-.01337-.04138-.00677-.02087-.01355-.04181-.02191-.06226-.0058-.0141-.01294-.02826-.01917-.04181-.00916-.01935-.01855-.03821-.029-.05652-.00763-.01361-.0163-.02673-.02441-.03979-.01147-.01776-.02319-.035-.036-.05182-.00946-.01251-.01917-.02509-.0296-.03711-.01331-.01569-.02747-.03143-.04242-.04608-.01123-.01147-.02222-.023-.034-.03351-.01538-.0141-.03186-.02771-.04865-.04077-.01257-.00995-.02515-.0199-.03851-.0293l-.01434-.0105L15.47437,5.19672a.85457.85457,0,0,0-.94843,0l-9.092,6.06134-.01392.0105c-.01331.0094-.02612.01935-.0387.0293-.01672.01306-.033.02667-.0484.04077-.01178.0105-.023.022-.0343.03351-.01489.01465-.02875.0304-.0426.04608l-.0293.03711c-.01257.01678-.0246.03406-.03589.05182-.00861.01306-.01672.02618-.02454.03979-.0105.01831-.0199.03717-.02905.05652l-.0191.04181c-.00836.02045-.01544.04138-.022.06226-.0047.01367-.0094.02728-.01337.04138-.00629.0235-.0105.04761-.01489.07166-.00214.01257-.00525.02466-.00684.03717a.83235.83235,0,0,0-.00781.11145v6.0614a.84612.84612,0,0,0,.00781.11194c.00159.012.0047.0246.00684.03662.00439.02411.00861.04816.01489.07172.004.01416.00867.02771.01337.04132.00653.02094.01361.04193.022.06281.006.0141.01251.02771.0191.04132.00916.01941.01855.03821.02905.05707l.02454.03925c.01129.01776.02332.035.03589.05176.0094.01312.01935.02515.0293.03717.01385.01569.02771.03137.0426.046.01129.01154.02252.02307.0343.03351.01544.0141.03168.02771.0484.04077.01257.01.02539.02.0387.0293l.01392.0105,9.092,6.0614a.85352.85352,0,0,0,.94843,0l9.09174-6.0614.01434-.0105c.01337-.00934.02594-.01929.03851-.0293.01678-.01306.03326-.02667.04865-.04077.01178-.01044.02277-.022.034-.03351.015-.01465.02911-.03033.04242-.046.01044-.012.02014-.024.0296-.03717.01282-.01672.02454-.034.036-.05176l.02441-.03925c.01044-.01886.01984-.03766.029-.05707.00623-.01361.01337-.02722.01917-.04132.00836-.02087.01514-.04187.02191-.06281.00446-.01361.0097-.02716.01337-.04132.00629-.02356.01044-.04761.01489-.07172l.00677-.03662a.83575.83575,0,0,0,.00763-.11194v-6.0614a.82236.82236,0,0,0-.00763-.11145ZM15.855,7.50531l6.69794,4.4649-2.99176,2.00146L15.855,11.49249Zm-1.70972,0v3.98718l-3.70593,2.47919-2.992-2.00146Zm-7.38232,6.064,2.13879,1.4306-2.13879,1.4306Zm7.38232,8.92517-6.69794-4.465,2.992-2.00092,3.70593,2.47864ZM15,17.02228l-3.02338-2.0224L15,12.97754l3.02362,2.02234Zm.855,5.47217V18.5072l3.70618-2.47864,2.99176,2.00092Zm7.38232-6.064-2.13849-1.4306,2.13849-1.4306Z"/>
</svg>
