<svg xmlns="http://www.w3.org/2000/svg" viewBox="0 0 30 30">
  <title>dribbble</title>
  <path d="M15,5.05316A9.94681,9.94681,0,1,0,24.94678,15,9.95808,9.95808,0,0,0,15,5.05316Zm6.57654,4.587a8.45613,8.45613,0,0,1,1.91858,5.29248,19.8551,19.8551,0,0,0-5.916-.2735q-.08945-.21817-.183-.43842c-.17645-.41437-.366-.82593-.56366-1.23065A11.31749,11.31749,0,0,0,21.57654,9.6402ZM15,6.51685a8.4611,8.4611,0,0,1,5.632,2.14087,9.59266,9.59266,0,0,1-4.45288,3.069A45.34815,45.34815,0,0,0,13.009,6.753,8.4875,8.4875,0,0,1,15,6.51685Zm-3.61206.80725a54.23421,54.23421,0,0,1,3.15,4.91357,31.69136,31.69136,0,0,1-7.85455,1.03516A8.5273,8.5273,0,0,1,11.38794,7.3241Zm-4.884,7.68884c0-.08685.00171-.17334.00433-.25958A31.34029,31.34029,0,0,0,15.24,13.54425c.24323.476.47552.95917.68878,1.44183q-.16855.04742-.33478.10107A13.48027,13.48027,0,0,0,8.688,20.69366,8.46213,8.46213,0,0,1,6.50391,15.01294ZM15,23.509a8.45347,8.45347,0,0,1-5.215-1.79352,11.64806,11.64806,0,0,1,6.66522-5.30566l.056-.01892a35.31731,35.31731,0,0,1,1.81244,6.44287A8.44886,8.44886,0,0,1,15,23.509ZM19.74707,22.056a36.67343,36.67343,0,0,0-1.65057-6.05762,12.46969,12.46969,0,0,1,5.29218.36322A8.51085,8.51085,0,0,1,19.74707,22.056Z"/>
</svg>
