<svg xmlns="http://www.w3.org/2000/svg" viewBox="0 0 30 30">
  <title>github</title>
  <path d="M14.99933,5.29883A9.94776,9.94776,0,0,0,11.8559,24.68408c.49738.09119.67889-.21588.67889-.47949,0-.23615-.00861-.86163-.01343-1.69171C9.75452,23.114,9.17072,21.1795,9.17072,21.1795a2.63447,2.63447,0,0,0-1.10437-1.455c-.90314-.61713.0683-.60461.0683-.60461a2.08917,2.08917,0,0,1,1.52356,1.025,2.11782,2.11782,0,0,0,2.89484.82648,2.12512,2.12512,0,0,1,.63147-1.32971c-2.20874-.251-4.53076-1.10437-4.53076-4.916a3.845,3.845,0,0,1,1.0238-2.66913,3.57786,3.57786,0,0,1,.09753-2.63239s.83514-.26746,2.73529,1.01965a9.42893,9.42893,0,0,1,4.98041,0c1.899-1.28711,2.7326-1.01965,2.7326-1.01965a3.5724,3.5724,0,0,1,.09894,2.63239,3.83826,3.83826,0,0,1,1.02246,2.66913c0,3.82117-2.32562,4.662-4.5415,4.90826a2.374,2.374,0,0,1,.67529,1.842c0,1.32977-.01221,2.40259-.01221,2.7287,0,.266.17914.57544.684.47833a9.94829,9.94829,0,0,0-3.151-19.38409Z"/>
</svg>
