<svg xmlns="http://www.w3.org/2000/svg" viewBox="0 0 30 30.0001">
  <title>google</title>
  <g>
    <path d="M11.32319,17.81819c-2.4231-.02661-4.47668,1.53119-4.47668,3.3371,0,1.8429,1.75,3.37677,4.1734,3.37677,3.098,0,4.59479-1.43976,4.59479-3.28265C15.6147,19.49257,14.012,17.81819,11.32319,17.81819Z" fill="none"/>
    <path d="M15.14479,16.78236c-1.94928-1.42169-2.42566-2.225-.565-3.66345a4.08592,4.08592,0,0,0,1.783-3.22534,3.81256,3.81256,0,0,0-1.71191-3.41241H16.235l1.34863-1.41534H11.54878c-3.76715,0-5.6145,2.258-5.6145,4.74188,0,2.53839,1.74139,4.53748,5.14185,4.53748a2.09662,2.09662,0,0,0,.5473,2.75031c-5.8078,0-7.0506,2.54852-7.0506,4.51154,0,2.54358,2.92389,4.05566,6.42987,4.05566,4.79382,0,6.6994-2.54059,6.6994-4.6275C17.7021,19.33388,17.06678,18.22231,15.14479,16.78236Zm-6.941-7.01245C7.9228,7.63338,9.01362,5.9988,10.64,6.0472c1.62585.04889,3.01758,1.80121,3.2981,3.93707.28046,2.13641-.65521,3.51093-2.28113,3.46259A3.94981,3.94981,0,0,1,8.20381,9.76991Zm2.8161,14.76215c-2.4234,0-4.1734-1.53387-4.1734-3.37677,0-1.80591,2.05359-3.36371,4.47668-3.3371,2.68878,0,4.2915,1.67438,4.2915,3.43121C15.6147,23.0923,14.11787,24.53206,11.01991,24.53206Z"/>
    <polygon points="22.789 5.344 21.397 5.344 21.397 8.128 18.613 8.128 18.613 9.52 21.397 9.52 21.397 12.304 22.789 12.304 22.789 9.52 25.573 9.52 25.573 8.128 22.789 8.128 22.789 5.344"/>
  </g>
</svg>
