<svg xmlns="http://www.w3.org/2000/svg" viewBox="0 0 30 30">
  <title>instagram</title>
  <g>
    <circle cx="15" cy="15.00012" r="3.32501" fill="none"/>
    <path d="M22.77606,9.11719a3.303,3.303,0,0,0-1.89313-1.89313,5.51859,5.51859,0,0,0-1.85217-.34351c-1.05188-.048-1.36731-.05811-4.03076-.05811s-2.97894.01013-4.03076.05811A5.51942,5.51942,0,0,0,9.117,7.22406,3.30348,3.30348,0,0,0,7.22388,9.11719a5.519,5.519,0,0,0-.34344,1.85217c-.048,1.05182-.05817,1.36731-.05817,4.03076s.01019,2.97894.05817,4.03076a5.51984,5.51984,0,0,0,.34344,1.85223A3.30361,3.30361,0,0,0,9.117,22.77618a5.51783,5.51783,0,0,0,1.85223.34351c1.0517.048,1.36713.05817,4.03076.05817s2.97906-.01019,4.03076-.05817a5.517,5.517,0,0,0,1.85217-.34351,3.30315,3.30315,0,0,0,1.89313-1.89307,5.51942,5.51942,0,0,0,.34351-1.85223c.048-1.05182.05811-1.36731.05811-4.03076s-.01013-2.97894-.05811-4.03076A5.51859,5.51859,0,0,0,22.77606,9.11719ZM15,20.12244a5.12231,5.12231,0,1,1,5.12231-5.12231A5.12231,5.12231,0,0,1,15,20.12244Zm5.32465-9.25a1.197,1.197,0,1,1,1.197-1.197A1.19695,1.19695,0,0,1,20.32465,10.87244Z" fill="none"/>
    <circle cx="20.32466" cy="9.67546" r="1.19699"/>
    <path d="M24.45129,8.46613a5.1004,5.1004,0,0,0-2.9173-2.9173,7.32063,7.32063,0,0,0-2.42133-.46368c-1.064-.04852-1.40363-.06-4.11267-.06s-3.04877.01147-4.11267.06A7.32,7.32,0,0,0,8.466,5.54883a5.10074,5.10074,0,0,0-2.91736,2.9173A7.32047,7.32047,0,0,0,5.085,10.88745c-.04858,1.064-.06006,1.40363-.06006,4.11267s.01147,3.04877.06006,4.11267a7.32014,7.32014,0,0,0,.46362,2.42133A5.10107,5.10107,0,0,0,8.466,24.45148a7.32171,7.32171,0,0,0,2.42133.46362c1.0639.04858,1.40363.06006,4.11267.06006s3.04871-.01147,4.11267-.06006a7.32237,7.32237,0,0,0,2.42133-.46362,5.10074,5.10074,0,0,0,2.9173-2.91736,7.32154,7.32154,0,0,0,.46368-2.42133c.04852-1.0639.06-1.40363.06-4.11267s-.01147-3.04871-.06-4.11267A7.32187,7.32187,0,0,0,24.45129,8.46613ZM23.11957,19.03088a5.51942,5.51942,0,0,1-.34351,1.85223,3.30315,3.30315,0,0,1-1.89313,1.89307,5.517,5.517,0,0,1-1.85217.34351c-1.0517.048-1.36713.05817-4.03076.05817s-2.97906-.01019-4.03076-.05817A5.51783,5.51783,0,0,1,9.117,22.77618a3.30361,3.30361,0,0,1-1.89313-1.89307,5.51984,5.51984,0,0,1-.34344-1.85223c-.048-1.05182-.05817-1.36731-.05817-4.03076s.01019-2.97894.05817-4.03076a5.519,5.519,0,0,1,.34344-1.85217A3.30348,3.30348,0,0,1,9.117,7.22406a5.51942,5.51942,0,0,1,1.85223-.34351c1.05182-.048,1.36731-.05811,4.03076-.05811s2.97888.01013,4.03076.05811a5.51859,5.51859,0,0,1,1.85217.34351,3.303,3.303,0,0,1,1.89313,1.89313,5.51859,5.51859,0,0,1,.34351,1.85217c.048,1.05182.05811,1.36731.05811,4.03076S23.16754,17.97906,23.11957,19.03088Z"/>
    <path d="M15,9.87781a5.12231,5.12231,0,1,0,5.12231,5.12231A5.12231,5.12231,0,0,0,15,9.87781Zm0,8.44733a3.325,3.325,0,1,1,3.325-3.325A3.325,3.325,0,0,1,15,18.32513Z"/>
  </g>
</svg>
