<svg xmlns="http://www.w3.org/2000/svg" viewBox="0 0 30 30">
  <title>instagram</title>
  <g>
      <circle cx="20.3" cy="9.7" r="1.2"/>
      <path d="M24.5,8.5c-0.5-1.3-1.6-2.4-2.9-2.9c-0.8-0.3-1.6-0.4-2.4-0.5C18,5,17.7,5,15,5s-3,0-4.1,0.1c-0.8,0-1.6,0.2-2.4,0.5
      	C7.1,6.1,6.1,7.1,5.5,8.5c-0.3,0.8-0.4,1.6-0.5,2.4C5,12,5,12.3,5,15s0,3,0.1,4.1c0,0.8,0.2,1.6,0.5,2.4c0.5,1.3,1.6,2.4,2.9,2.9
      	c0.8,0.3,1.6,0.4,2.4,0.5C12,25,12.3,25,15,25s3,0,4.1-0.1c0.8,0,1.6-0.2,2.4-0.5c1.3-0.5,2.4-1.6,2.9-2.9c0.3-0.8,0.4-1.6,0.5-2.4
      	C25,18,25,17.7,25,15s0-3-0.1-4.1C24.9,10.1,24.7,9.2,24.5,8.5z M23.1,19c0,0.6-0.1,1.3-0.3,1.9c-0.3,0.9-1,1.6-1.9,1.9
      	c-0.6,0.2-1.2,0.3-1.9,0.3c-1.1,0-1.4,0.1-4,0.1s-3,0-4-0.1c-0.6,0-1.3-0.1-1.9-0.3c-0.9-0.3-1.6-1-1.9-1.9C7,20.3,6.9,19.7,6.9,19
      	c0-1.1-0.1-1.4-0.1-4s0-3,0.1-4c0-0.6,0.1-1.3,0.3-1.9c0.3-0.9,1-1.6,1.9-1.9C9.7,7,10.3,6.9,11,6.9c1.1,0,1.4-0.1,4-0.1s3,0,4,0.1
      	c0.6,0,1.3,0.1,1.9,0.3c0.9,0.3,1.6,1,1.9,1.9c0.2,0.6,0.3,1.2,0.3,1.9c0,1.1,0.1,1.4,0.1,4S23.2,18,23.1,19z"/>
      <path d="M15,9.9c-2.8,0-5.1,2.3-5.1,5.1s2.3,5.1,5.1,5.1s5.1-2.3,5.1-5.1S17.8,9.9,15,9.9L15,9.9z M15,18.3c-1.8,0-3.3-1.5-3.3-3.3
      	c0-1.8,1.5-3.3,3.3-3.3c1.8,0,3.3,1.5,3.3,3.3C18.3,16.8,16.8,18.3,15,18.3z"/>
  </g>
</svg>
