<?xml version="1.0" encoding="utf-8"?>
<!-- Generator: Adobe Illustrator 20.1.0, SVG Export Plug-In . SVG Version: 6.00 Build 0)  -->
<svg version="1.1" id="Layer_1" xmlns="http://www.w3.org/2000/svg" xmlns:xlink="http://www.w3.org/1999/xlink" x="0px" y="0px"
	 viewBox="0 0 100 86.6" style="enable-background:new 0 0 100 86.6;" xml:space="preserve">
<style type="text/css">
	.st0{fill:$white;}
</style>
<path class="up" class="st0" d="M0,87h100L50,0.4L0,87z M65,67.4c0,3.3-2.7,6.6-6,6.6H41c-3.3,0-6-3.3-6-6.6V54h8.8
	c-0.9,1-1.4,2.8-1.4,4.4c0,4.2,3.4,7.6,7.6,7.6c4.2,0,7.6-3.4,7.6-7.6c0-1.6-0.5-3.4-1.4-4.4H65V67.4z M44.1,58.4
	c0-1.8,0.8-3.3,2-4.4c0.4-0.4,0.9-0.7,1.4-0.9c0.7-0.3,1.6-0.5,2.4-0.5c0.9,0,1.7,0.2,2.4,0.5c0.5,0.2,1,0.6,1.4,0.9
	c1.2,1.1,2,2.7,2,4.4c0,3.2-2.6,5.9-5.9,5.9C46.7,64.3,44.1,61.7,44.1,58.4z M65,49.2V53h-9.6c-1.4-1-3.3-2.3-5.4-2.3
	c-2.1,0-4.1,1.3-5.4,2.3H35v-3.8c0-2,1-3.7,3-4.8V51h1v-7.3c0-0.1,0-0.2,1-0.3V51h1v-7.7c0,0-0.1,0.7,0,0.7h1v7h1v-7h16
	C62.3,44,65,45.9,65,49.2z M62,50.1c0,0.5-0.4,0.9-0.9,0.9h-3.1c-0.5,0-0.9-0.4-0.9-0.9v-3.1c0-0.5,0.4-0.9,0.9-0.9h3.1
	c0.5,0,0.9,0.4,0.9,0.9V50.1z M45.7,58.4c0-2.4,1.9-4.3,4.3-4.3c2.4,0,4.3,1.9,4.3,4.3c0,2.4-1.9,4.3-4.3,4.3S45.7,60.8,45.7,58.4z"
	/>
<path class="down" class="st0" d="M62,20.1c0,0.5-0.4,0.9-0.9,0.9h-3.1c-0.5,0-0.9-0.4-0.9-0.9v-3.1c0-0.5,0.4-0.9,0.9-0.9h3.1
	c0.5,0,0.9,0.4,0.9,0.9V20.1z M50,33.4c2.4,0,4.3-1.9,4.3-4.3c0-2.4-1.9-4.3-4.3-4.3c-2.4,0-4.3,1.9-4.3,4.3
	C45.7,31.4,47.6,33.4,50,33.4z M0,0h100L50,86.6L0,0z M65,24h-8.8c0.9,2,1.4,3,1.4,4.7c0,4.2-3.4,7.8-7.6,7.8
	c-4.2,0-7.6-3.6-7.6-7.8c0-1.6,0.5-2.7,1.4-4.7H35v14c0,3.3,2.7,6,6,6h18c3.3,0,6-2.8,6-6V24z M50,34.9c3.2,0,5.9-2.6,5.9-5.9
	c0-1.8-0.8-3.3-2-4.4c-0.4-0.4-0.9-0.7-1.4-0.9c-0.7-0.3-1.6-0.5-2.4-0.5c-0.9,0-1.7,0.2-2.4,0.5c-0.5,0.2-1,0.6-1.4,0.9
	c-1.2,1.1-2,2.7-2,4.4C44.1,32.3,46.7,34.9,50,34.9z M35,19.8V23h9.5c1.4-1,3.3-2.3,5.4-2.3c2.1,0,4.1,1.3,5.4,2.3H65v-3.2
	c0-3.3-2.7-5.8-6-5.8H43v7h-1v-7h-1c0,0,0-0.1,0-0.1V21h-1v-7c-1,0.1-1,0.2-1,0.3V21h-1v-6C36,16,35,17.8,35,19.8z"/>
</svg>
