<?xml version="1.0" encoding="utf-8"?>
<!-- Generator: Adobe Illustrator 20.1.0, SVG Export Plug-In . SVG Version: 6.00 Build 0)  -->
<svg version="1.1" id="Layer_1" xmlns="http://www.w3.org/2000/svg" xmlns:xlink="http://www.w3.org/1999/xlink" x="0px" y="0px"
	 viewBox="0 0 100 86.6" style="enable-background:new 0 0 100 86.6;" xml:space="preserve">
<style type="text/css">
	.st0{fill:$white;}
</style>
<path class="up" class="st0" d="M0,87.6h100L50,1L0,87.6z M42,74.6h-6v-20h6V74.6z M38.7,51.3c-2,0-3.7-1.7-3.7-3.7
	c0-2,1.6-3.7,3.7-3.7c2,0,3.7,1.7,3.7,3.7C42.3,49.6,40.7,51.3,38.7,51.3z M51.8,54.3l0.2-0.3v2.7c0,0,1.6-3.3,5.9-3.3
	c4.2,0,7.1,2.6,7.1,7.9c0,5.4,0,13.4,0,13.4h-6c0,0,0-8.3,0-11.2c0-2.9-1-4.5-3.3-4.5c-2.5,0-3.7,1.7-3.7,4.5c0,3.1,0,11.2,0,11.2
	h-6v-20h5.7L51.8,54.3z"/>
<path class="down" class="st0" d="M50,87.2l50-86.6H0L50,87.2z M42,44.6h-6v-20h6V44.6z M46,24.6h5.7l0.2-0.1l0.2-0.1v2.7
	c0,0,1.6-3.3,5.9-3.3c4.2,0,7.1,2.6,7.1,7.9s0,12.8,0,12.8h-6c0,0,0-7.7,0-10.6c0-2.9-1-4.5-3.3-4.5c-2.5,0-3.7,1.7-3.7,4.5
	c0,3.1,0,10.6,0,10.6h-6V24.6z M38.7,14.5c2,0,3.7,1.7,3.7,3.7c0,2-1.6,3.7-3.7,3.7S35,20.2,35,18.2C35,16.1,36.6,14.5,38.7,14.5z"
	/>
</svg>
