<svg xmlns="http://www.w3.org/2000/svg" viewBox="0 0 209.2 61">
  <title>ryanfiller</title>
  <defs>
      <linearGradient id="lines" spreadMethod="repeat"
      x1="0%" y1="0%" x2="0%" y2="2%">
          <stop offset="0%" stop-color= "transparent" />
          <stop offset="50%" stop-color= "black" />
          <stop offset="100%" stop-color= "transparent" />
      </linearGradient>
  </defs>
  <g>
      <path class="logo" fill="url(#lines)" d="M9.9,19.1c-1,0.6-2,1.3-2.8,2.1l0.2-2.1c-2.2,0-3.3-0.1-5.5-0.3C1,28.4,0.7,33.1,0,42.7
      	c2.2,0.2,3.3,0.2,5.5,0.3C5.8,38,6,35.5,6.4,30.6c0.3-4.5,2-6.7,5-6.8c1.1,0,2.1,0.4,3,1c1.2-2,1.7-3.1,2.9-5.1
      	c-1.3-0.8-2.9-1.3-4.4-1.3C11.8,18.5,10.8,18.7,9.9,19.1z M40.5,17c-3.1,5.7-4.7,8.6-7.8,14.3c-2.5-5.2-3.8-7.7-6.3-13
      	c-2.6,0.2-3.8,0.3-6.4,0.5c3.7,7.5,5.6,11.1,9.3,18.5c-4.2,7.3-6.3,11-10.6,18.2c2.5-0.2,3.8-0.3,6.3-0.5
      	c7.2-12.8,14.4-25.7,21.6-38.6C44.2,16.6,43,16.7,40.5,17z M65.1,18.4c-1.7-2.2-4.4-3.4-7.2-3.4c-3.2,0.1-6.2,1.6-8.3,4
      	c-2.3,2.5-3.7,5.8-3.9,9.2c-0.3,3.6,0.6,6.6,2.5,8.8c2,2.2,4.9,3.4,7.9,3.1c2.8-0.2,5.5-1.3,7.5-3.2l-0.2,2.5c2.2,0,3.3,0.1,5.5,0.3
      	c0.7-9.5,1-14.3,1.7-23.8c-2.2-0.2-3.3-0.2-5.5-0.3C65.3,16.7,65.2,17.3,65.1,18.4z M62.5,33c-1.3,1.4-3.2,2.2-5.1,2.2
      	c-1.8,0.1-3.5-0.6-4.6-2c-1.2-1.6-1.7-3.5-1.4-5.5c0.1-2,0.9-4,2.3-5.5c1.2-1.4,3-2.3,4.9-2.3c1.8-0.1,3.6,0.6,4.7,2.1
      	c1.2,1.6,1.7,3.6,1.5,5.5C64.7,29.6,63.9,31.5,62.5,33z M88.4,16.2c-2.5-0.1-4.9,0.9-6.7,2.6c0.1-0.9,0.1-1.3,0.2-2.2
      	c-2.2-0.1-3.3-0.2-5.5-0.3c-0.7,9.5-1,14.3-1.7,23.8c2.2,0.1,3.3,0.2,5.5,0.3c0.3-4.6,0.5-6.9,0.8-11.5c0.2-3,0.7-5,1.6-6.2
      	c1-1.2,2.5-1.8,4-1.6c1.7,0.1,2.8,0.6,3.4,1.5c0.6,0.9,0.8,2.5,0.6,4.9c-0.4,5.3-0.6,8-1,13.3c2.2,0.1,3.3,0.1,5.5,0.2
      	c0.4-5.8,0.6-8.8,1.1-14.6c0.2-3.3-0.3-5.8-1.5-7.3C93.1,17.2,90.8,16.1,88.4,16.2z M124.9,18c0.2-3.1,0.3-4.7,0.6-7.8
      	c0-1.4,0.3-2.7,0.8-3.9c0.4-0.7,1.2-1.1,2.1-1c1,0.1,2,0.5,2.9,1c0.2,0.1,0.3,0.2,0.5,0.3c0.2-2.2,0.2-3.4,0.4-5.6
      	c-1.1-0.6-2.4-0.9-3.6-1c-2.4-0.2-4.8,0.6-6.4,2.3c-1.1,1.2-1.8,3.3-2,6.3c-0.3,3.7-0.4,5.5-0.7,9.2c-0.8,0-1.2,0-2-0.1
      	c-0.1,2.1-0.2,3.1-0.4,5.1c0.8,0,1.2,0,2,0.1c-0.5,7.5-0.8,11.2-1.4,18.6c2.2,0.1,3.3,0.1,5.5,0.2c0.5-7.5,0.8-11.2,1.4-18.6
      	c4.1,0.2,6.1,0.3,10.2,0.5c-0.5,7.5-0.8,11.2-1.4,18.6c2.2,0.1,3.3,0.2,5.5,0.4c0.5-7.5,0.8-11.2,1.4-18.6c0.1-2,0.2-3.1,0.4-5.1
      	c-2.2-0.2-3.3-0.2-5.5-0.4C131,18.3,129,18.2,124.9,18z M138.8,5.3c-0.9-0.1-1.9,0.2-2.6,0.9c-0.7,0.6-1.2,1.5-1.2,2.4
      	c-0.2,2,1.3,3.7,3.2,3.8c0,0,0,0,0.1,0c0.9,0.1,1.9-0.2,2.6-0.9c0.7-0.6,1.2-1.5,1.2-2.5c0.1-0.9-0.2-1.9-0.9-2.6
      	C140.6,5.8,139.7,5.3,138.8,5.3z M144.3,43.1c2.2,0.1,3.3,0.2,5.5,0.3c1-13.7,2-27.5,3-41.2c-2.2-0.1-3.3-0.2-5.5-0.3
      	C146.3,15.6,145.3,29.3,144.3,43.1z M155.3,43.6c2.2,0.1,3.3,0.1,5.5,0.2c1-13.7,2-27.5,3-41.2c-2.2-0.1-3.3-0.1-5.5-0.2
      	C157.3,16.1,156.3,29.8,155.3,43.6z M180.7,39.2c-1,0.6-2.2,1-3.5,0.9c-1.6,0-3.1-0.6-4.2-1.8c-1.1-1.3-1.6-3-1.6-4.7
      	c6.8,0.2,10.2,0.3,17.1,0.5c0-0.5,0.1-0.8,0.1-1.3c0.3-3.9-0.5-7-2.4-9.3c-2-2.4-5-3.7-8.1-3.6c-3.2-0.2-6.3,1-8.6,3.2
      	c-2.3,2.4-3.7,5.7-3.8,9c-0.3,3.8,0.6,6.9,2.6,9.2c2.1,2.4,5.1,3.7,8.3,3.7c1.2,0,2.3-0.1,3.5-0.3c1.1-0.2,2.1-0.6,3-1.1
      	c1-0.6,1.9-1.3,2.7-2.1c0.9-0.9,1.8-2,2.5-3.1c-1.8-1.1-2.7-1.7-4.5-2.8C183,37,181.9,38.2,180.7,39.2z M173,27.2
      	c0.4-0.5,0.8-1,1.3-1.3c0.5-0.4,1.1-0.6,1.7-0.8c0.6-0.2,1.3-0.3,1.9-0.3c2.9,0.1,4.7,1.6,5.2,4.6c-4.4-0.1-6.6-0.2-11-0.3
      	C172.3,28.4,172.6,27.8,173,27.2z M204.6,20.9c-1-0.1-2,0.1-2.9,0.4c-1.1,0.5-2,1.2-2.8,2l0.2-2.1c-2.2-0.1-3.3-0.2-5.5-0.3
      	c-0.7,9.5-1,14.3-1.7,23.8c2.2,0.1,3.3,0.1,5.5,0.3c0.4-4.9,0.5-7.4,0.9-12.3c0.3-4.5,2-6.7,5-6.5c1.1,0.1,2.1,0.6,3,1.3
      	c1.2-1.9,1.7-2.9,2.9-4.9C207.8,21.7,206.2,21.1,204.6,20.9z"/>
        <path id="SVGID_x5F_1_x5F_" class="st1" d="M34.4,53.2l163,6.8"/>
        <text class="tagline">
            <textPath xlink:href="#SVGID_x5F_1_x5F_" startOffset="15.0879%">
                <tspan fill="url(#lines)" style="font-family:'Raleway'; font-size:11px;">
                    designer, illustrator, maker
                </tspan>
            </textPath>
        </text>
        <path class="initials" d="M106.9,25.2c0.3-5.4,0.3-8.1,0.7-13.5c0.3-4.4,1.3-7.4,2.9-9.1c2.2-2.3,5.3-3,9.3-2.4c1.4,0.2,3.2,0.9,5.4,1.8
        	c-0.1,3.2-0.2,4.7-0.5,7.8c-0.3-0.2-0.5-0.3-0.8-0.4c-1.7-0.9-3.1-1.5-4.2-1.6c-1.4-0.2-2.4,0.2-3,1.1c-0.6,0.9-1,2.7-1.1,5.5
        	c-0.3,4.4-0.3,6.8-0.6,11.4c3.5,0.2,5.3,0.4,8.8,0.5c-0.2,3-0.3,4.5-0.5,7.5c-3.5-0.1-5.3-0.3-8.8-0.5c-0.7,10.9,0.1,16.4-0.3,27.3
        	c-3.2-0.2-4.9-0.3-8.1-0.5c0.4-10.9-0.3-16.4,0.3-27.3C106.6,29.7,106.7,28.2,106.9,25.2z M101.2,25.1c-1.6,0.1-3,0.5-4.2,1.2
        	c-1.2,0.7-2.6,1.9-4.1,3.6c0.1-1.6,0.2-2.4,0.3-4.1c-3.2,0.3-4.8,0.5-8.1,0.4c-1,11.5-1.1,23.3-0.8,34.9c3.2,0,4.8-0.2,8.1-0.5
        	c0.1-6.9-0.2-10.4-0.1-17.3c0.1-6.6,2.6-10.3,7-10.6c0.6,0,0.9-0.1,1.5-0.1c1.1,0,1.7-0.1,2.9,0c0.2-3,0.3-4.5,0.5-7.5
        	C102.9,25,102.3,25,101.2,25.1z"/>
  </g>
</svg>
