<svg id="Layer_1" data-name="Layer 1" xmlns="http://www.w3.org/2000/svg" viewBox="0 0 456.4 449.6"><title>Artboard 1</title><polygon points="296 277.7 333.5 146.5 290.6 146.5 290.8 147 274.7 203.3 296 277.7" fill="#fff"/><polygon points="190.5 146.5 240.9 323.1 283.5 323.1 233.2 147 233.3 146.5 190.5 146.5" fill="#fff"/><polygon points="123 146.5 173.4 323.1 216 323.1 165.5 146.5 123 146.5" fill="#fff"/><path d="M442,199a190.08,190.08,0,0,0-13.2-57.6,200.73,200.73,0,0,0-47.1-70l.1-.1c-.8-.8-1.5-1.5-2.3-2.2a214.77,214.77,0,0,0-68.8-43.5,226.78,226.78,0,0,0-164.8.2A215.46,215.46,0,0,0,77.6,69.1c-.8.8-1.6,1.5-2.4,2.3A197.3,197.3,0,0,0,18.6,173.2,184.82,184.82,0,0,0,15,198.9l-.4,5.7h.2c-.1,2.7-.2,5.3-.2,7.9a99.32,99.32,0,0,0,0,12.2c0,.5.1,1.1.1,1.7l.4,5H90.2V194H52.8a155.09,155.09,0,0,1,9.6-37.9,164.85,164.85,0,0,1,39.2-58.3c2.1-2,4.2-4,6.5-6a177.12,177.12,0,0,1,26.6-19.1l1.5-.9a.35.35,0,0,0,.2-.1,177.45,177.45,0,0,1,24.1-11.5c1.8-.7,3.7-1.4,5.5-2.1a1.85,1.85,0,0,1,.7-.2c1.9-.7,3.8-1.3,5.8-1.9.1,0,.1,0,.2-.1l5.1-1.5c.6-.2,1.1-.3,1.7-.5,1.4-.4,2.7-.7,4.1-1s2.8-.7,4.2-1c.7-.1,1.3-.3,2-.4a192.07,192.07,0,0,1,38.5-4,187.61,187.61,0,0,1,67.9,12.7,179.18,179.18,0,0,1,52.5,31.7c2.2,1.9,4.4,3.9,6.5,5.9a164.77,164.77,0,0,1,39.1,58,155,155,0,0,1,10.3,44l.4,4.9h37.4v-.1Z" fill="#fff"/><path d="M441.9,223.1l-.4-5H366.4v37.4h37.5a155.09,155.09,0,0,1-9.6,37.9,164.85,164.85,0,0,1-39.2,58.3c-2.1,2-4.2,4-6.5,6a177.89,177.89,0,0,1-52.1,31.5,184.85,184.85,0,0,1-50.6,12c-.5,0-.9.1-1.4.1-.8.1-1.6.1-2.3.2s-1.7.1-2.5.2a3.4,3.4,0,0,0-1,.1q-5.1.3-10.2.3a187.61,187.61,0,0,1-67.9-12.7,179.18,179.18,0,0,1-52.5-31.7c-2.2-1.9-4.4-3.9-6.5-5.9a164.77,164.77,0,0,1-39.1-58,155,155,0,0,1-10.3-44l-.4-4.9H14.1l.4,5.7a190.08,190.08,0,0,0,13.2,57.6,203.44,203.44,0,0,0,47.1,70.1c.8.8,1.5,1.5,2.3,2.2A214.77,214.77,0,0,0,145.9,424a226.78,226.78,0,0,0,164.8-.2A215.46,215.46,0,0,0,379,380.5c.8-.8,1.6-1.5,2.4-2.3l-.1-.1a200.47,200.47,0,0,0,47-70,193.1,193.1,0,0,0,13.2-57.6l.4-5.7h-.2c.1-2.7.2-5.4.2-8a68.44,68.44,0,0,0,.1-12C442,224.3,441.9,223.7,441.9,223.1Z" fill="#fff"/></svg>