<svg xmlns="http://www.w3.org/2000/svg" viewBox="0 0 30 30.0001">
  <title>tumblr</title>
  <path d="M21.455,21.05568a5.73371,5.73371,0,0,1-3.17236,1.03711,3.0313,3.0313,0,0,1-1.59381-.41809,1.59513,1.59513,0,0,1-.71979-.8277,8.5688,8.5688,0,0,1-.19324-2.3446V13.11611h4.98676V9.81947H15.77577V4.50008H12.80031a8.16,8.16,0,0,1-.73273,2.6731,5.74222,5.74222,0,0,1-1.41077,1.80011,6.14574,6.14574,0,0,1-2.11194,1.15088v2.99194H10.8445v7.3595a6.18944,6.18944,0,0,0,.30151,2.19531,3.75274,3.75274,0,0,0,1.0827,1.43036A5.46026,5.46026,0,0,0,14.1158,25.1371a8.16,8.16,0,0,0,2.54437.3631,10.38068,10.38068,0,0,0,2.35864-.25433,12.51008,12.51008,0,0,0,2.43628-.88776H21.455Z"/>
</svg>
