<?xml version="1.0" encoding="utf-8"?>
<!-- Generator: Adobe Illustrator 20.1.0, SVG Export Plug-In . SVG Version: 6.00 Build 0)  -->
<svg version="1.1" id="Layer_1" xmlns="http://www.w3.org/2000/svg" xmlns:xlink="http://www.w3.org/1999/xlink" x="0px" y="0px"
	 viewBox="0 0 100 86.6" style="enable-background:new 0 0 100 86.6;" xml:space="preserve">
<style type="text/css">
	.st0{fill:$white;}
</style>
<path class="up" class="st0" d="M0,87h100L50,0.4L0,87z M55.8,46.1c1.8,0,3.4,0.7,4.5,1.9c1.4-0.3,2.7-0.8,3.9-1.5
	c-0.5,1.4-1.4,2.6-2.7,3.4c1.2-0.1,2.4-0.5,3.5-1c-0.8,1.2-1.9,2.3-3.1,3.2c0.4,8.7-6.1,18.3-17.5,18.3c-3.5,0-6.7-1-9.4-2.8
	c3.3,0.4,6.5-0.5,9.1-2.5c-2.7,0-5-1.8-5.7-4.3c1,0.2,1.9,0.1,2.8-0.1c-3-0.6-5-3.3-4.9-6.1c0.8,0.5,1.8,0.7,2.8,0.8
	c-2.7-1.8-3.5-5.5-1.9-8.2c3,3.7,7.6,6.2,12.7,6.4C48.9,49.8,51.8,46.1,55.8,46.1z"/>
<path class="down" class="st0" d="M50,86.6L100,0H0L50,86.6z M37.1,17.8c3,3.7,7.6,6.2,12.7,6.4c-0.9-3.8,2-7.6,6-7.6
	c1.8,0,3.4,0.7,4.5,1.9c1.4-0.3,2.7-0.8,3.9-1.5c-0.5,1.4-1.4,2.6-2.7,3.4c1.2-0.1,2.4-0.5,3.5-1c-0.8,1.2-1.9,2.3-3.1,3.2
	c0.4,8.7-6.1,18.3-17.5,18.3c-3.5,0-6.7-1-9.4-2.8c3.3,0.4,6.5-0.5,9.1-2.5c-2.7,0-5-1.8-5.7-4.3c1,0.2,1.9,0.1,2.8-0.1
	c-3-0.6-5-3.3-4.9-6.1C37,25.7,38,26,39,26C36.3,24.2,35.5,20.6,37.1,17.8z"/>
</svg>
