<svg xmlns="http://www.w3.org/2000/svg" viewBox="0 0 30 30.00012">
  <title>twitter</title>
  <path d="M23.061,9.9671A4.10548,4.10548,0,0,0,24.8606,7.70276a8.19226,8.19226,0,0,1-2.59912.993A4.0955,4.0955,0,0,0,15.287,12.429,11.62088,11.62088,0,0,1,6.85071,8.15265a4.09784,4.09784,0,0,0,1.26678,5.46448A4.075,4.075,0,0,1,6.26361,13.105,4.09744,4.09744,0,0,0,9.54633,17.17a4.10133,4.10133,0,0,1-1.84821.07,4.09669,4.09669,0,0,0,3.82336,2.84241A8.23119,8.23119,0,0,1,5.46191,21.7774,11.64064,11.64064,0,0,0,23.36951,11.44135a8.30944,8.30944,0,0,0,2.0423-2.11884A8.17461,8.17461,0,0,1,23.061,9.9671Z"/>
</svg>
