<svg xmlns="http://www.w3.org/2000/svg" viewBox="0 0 30 30.0001">
  <title>vimeo</title>
  <path d="M22.3661,6.13661q-4.36578-.14044-5.91449,4.93054a3.93542,3.93542,0,0,1,1.5545-.34454q1.60172,0,1.41382,1.79987a8.21049,8.21049,0,0,1-1.41382,3.1723q-1.32074,2.08347-1.98029,2.08362-.84952,0-1.5556-3.21124-.23776-.94244-.84869-4.81445-.56625-3.5885-3.01794-3.35284A6.94675,6.94675,0,0,0,7.49207,8.28639q-1.509,1.36826-3.0647,2.734l.988,1.27325a6.49637,6.49637,0,0,1,1.64789-.9895q1.08124,0,2.02319,3.39136.847,3.10867,1.69482,6.21765,1.269,3.39185,3.106,3.3913,2.96375,0,7.24695-5.5686,4.142-5.33112,4.283-8.399Q25.60294,6.23174,22.3661,6.13661Z"/>
</svg>
