<?xml version="1.0" encoding="utf-8"?>
<!-- Generator: Adobe Illustrator 20.1.0, SVG Export Plug-In . SVG Version: 6.00 Build 0)  -->
<svg version="1.1" id="Layer_1" xmlns="http://www.w3.org/2000/svg" xmlns:xlink="http://www.w3.org/1999/xlink" x="0px" y="0px"
	 viewBox="0 0 100 86.6" style="enable-background:new 0 0 100 86.6;" xml:space="preserve">
<style type="text/css">
	.st0{fill:$white;}
</style>
<path class="up" class="st0" d="M0,87.6h100L50,1L0,87.6z M51.6,62.6c0.6,0,1.6-1,2.8-3c1.3-2,1.9-3.5,2-4.5c0.2-1.7-0.5-2.6-2-2.6
	c-0.7,0-1.5,0.2-2.2,0.5c1.5-4.8,4.3-7.2,8.4-7c3.1,0.1,4.5,2.1,4.4,6c-0.1,2.9-2.2,6.9-6.1,12c-4.1,5.3-7.5,8-10.4,8
	c-1.7,0-3.2-1.6-4.4-4.8c-0.8-3-1.6-5.9-2.4-8.9c-0.9-3.2-1.9-4.8-2.9-4.8c-0.2,0-1,0.5-2.4,1.4L35,52.9c1.5-1.3,2.9-2.6,4.4-3.9
	c2-1.7,3.5-2.6,4.4-2.7c2.3-0.2,3.8,1.4,4.3,4.8c0.6,3.7,1,6,1.2,6.9C50,61,50.8,62.6,51.6,62.6z"/>
<path class="down" class="st0" d="M50,87.2l50-86.6H0L50,87.2z M43.8,16.9c2.3-0.2,3.8,1.4,4.3,4.8c0.6,3.7,1,6,1.2,6.9
	c0.7,3.1,1.4,4.6,2.2,4.6c0.6,0,1.6-1,2.8-3c1.3-2,1.9-3.5,2-4.5c0.2-1.7-0.5-2.6-2-2.6c-0.7,0-1.5,0.2-2.2,0.5
	c1.5-4.8,4.3-7.2,8.4-7c3.1,0.1,4.5,2.1,4.4,6c-0.1,2.9-2.2,6.9-6.1,12c-4.1,5.3-7.5,8-10.4,8c-1.7,0-3.2-1.6-4.4-4.8
	c-0.8-3-1.6-5.9-2.4-8.9c-0.9-3.2-1.9-4.8-2.9-4.8c-0.2,0-1,0.5-2.4,1.4L35,23.5c1.5-1.3,2.9-2.6,4.4-3.9
	C41.4,17.9,42.8,17,43.8,16.9z"/>
</svg>
