<svg xmlns="http://www.w3.org/2000/svg" viewBox="0 0 30 30.0001">
  <title>youtube</title>
  <g>
    <polygon points="11.428 15.874 7.77 15.874 7.77 16.995 9.003 16.995 9.003 23.592 10.195 23.592 10.195 16.995 11.428 16.995 11.428 15.874" fill="none"/>
    <path d="M13.3769,22.2206c-.12921.16168-.41608.42627-.62238.42627-.22644,0-.282-.15466-.282-.38367V17.89888H11.414v4.75873c0,1.15527.78326,1.16217,1.35388.83539a2.326,2.326,0,0,0,.609-.52924v.62854h1.05847V17.89888H13.3769Z" fill="none"/>
    <path d="M14.34,11.628c.29913,0,.4649-.24054.4649-.56592V8.28127c0-.33447-.14587-.57007-.48657-.57007-.31219,0-.46283.24286-.46283.57007v2.78082A.50412.50412,0,0,0,14.34,11.628Z" fill="none"/>
    <path d="M20.91639,17.755a1.56524,1.56524,0,0,0-1.60767,1.67462V21.985c0,1.025.51691,1.76129,1.52747,1.76129,1.1156,0,1.58643-.66431,1.58643-1.76129v-.42761H21.33308v.39569c0,.49579-.02588.79651-.4729.79651-.42609,0-.46216-.36932-.46216-.79651v-1.074h2.0246V19.42958C22.42261,18.40047,21.93189,17.755,20.91639,17.755Zm.41681,2.24042h-.93512V19.419c0-.3913.08051-.66718.47284-.66718.38068,0,.46228.28247.46228.66718Z" fill="none"/>
    <path d="M17.47822,17.827a1.2709,1.2709,0,0,0-.94135.53192V15.87428H15.46821v7.7179h1.06866v-.43762a1.21119,1.21119,0,0,0,1.00562.50952c.70428,0,.96783-.54712.96783-1.25146V19.254C18.51032,18.48189,18.25349,17.827,17.47822,17.827Zm-.05743,4.43079a.6562.6562,0,0,1-.09167.39233.44991.44991,0,0,1-.54169.05865.92491.92491,0,0,1-.25055-.2v-3.5481a.79129.79129,0,0,1,.21844-.17352.43973.43973,0,0,1,.55237.09351.7166.7166,0,0,1,.1131.4375Z" fill="none"/>
    <path d="M12.71162,11.113a1.43666,1.43666,0,0,0,1.62848,1.60187A1.52258,1.52258,0,0,0,15.938,11.113V8.18269a1.56076,1.56076,0,0,0-1.5979-1.6059,1.5293,1.5293,0,0,0-1.62848,1.6059Zm1.14386-2.83173c0-.32721.15063-.57007.46283-.57007.3407,0,.48657.2356.48657.57007v2.78082c0,.32538-.16577.56592-.4649.56592a.50412.50412,0,0,1-.4845-.56592Z"/>
    <path d="M17.658,12.69038a1.75755,1.75755,0,0,0,1.28455-.74628v.66h1.11151V6.626H18.94257v4.5376c-.1355.16968-.43677.44769-.6535.44769-.23785,0-.29608-.16241-.29608-.40277V6.626H16.8816v4.99652C16.8816,12.213,17.062,12.69038,17.658,12.69038Z"/>
    <polygon points="10.06 12.604 11.312 12.604 11.312 9.317 12.769 4.5 11.497 4.5 10.695 7.739 9.831 4.5 8.571 4.5 10.06 9.317 10.06 12.604"/>
    <path d="M21.55061,13.96449H8.44947A2.54855,2.54855,0,0,0,5.90089,16.5132v6.43835A2.54861,2.54861,0,0,0,8.44947,25.5002H21.55061a2.54864,2.54864,0,0,0,2.54852-2.54865V16.5132A2.54857,2.54857,0,0,0,21.55061,13.96449ZM10.1952,23.59218H9.00312v-6.5976H7.76978v-1.1203h3.65869v1.1203H10.1952Zm4.24017.00012H13.3769v-.62854a2.326,2.326,0,0,1-.609.52924c-.57062.32678-1.35388.31989-1.35388-.83539V17.89888h1.05847V22.2632c0,.229.0556.38367.282.38367.2063,0,.49316-.26459.62238-.42627V17.89888h1.05847Zm4.075-1.17969c0,.70435-.26355,1.25146-.96783,1.25146a1.21119,1.21119,0,0,1-1.00562-.50952v.43762H15.46821v-7.7179h1.06866V18.3589a1.2709,1.2709,0,0,1,.94135-.53192c.77527,0,1.0321.65491,1.0321,1.427Zm3.91229-1.53351H20.398v1.074c0,.42719.03607.79651.46216.79651.447,0,.4729-.30072.4729-.79651v-.39569h1.08954V21.985c0,1.097-.47083,1.76129-1.58643,1.76129-1.01056,0-1.52747-.73633-1.52747-1.76129V19.42958A1.56524,1.56524,0,0,1,20.91639,17.755c1.0155,0,1.50623.64551,1.50623,1.67462Z"/>
    <path d="M20.87092,18.75179c-.39233,0-.47284.27588-.47284.66718v.57642h.93512V19.419C21.3332,19.03426,21.25159,18.75179,20.87092,18.75179Z"/>
    <path d="M16.75532,18.78719a.79129.79129,0,0,0-.21844.17352v3.5481a.92491.92491,0,0,0,.25055.2.44991.44991,0,0,0,.54169-.05865.6562.6562,0,0,0,.09167-.39233V19.31819a.7166.7166,0,0,0-.1131-.4375A.43973.43973,0,0,0,16.75532,18.78719Z"/>
  </g>
</svg>
